<svg width="99" height="82" viewBox="0 0 99 82" fill="none" xmlns="http://www.w3.org/2000/svg">
<path d="M15.3126 71.3677C6.61625 65.7459 1.5 58.1572 1.5 50C1.5 41.8428 6.61625 34.2541 15.3126 28.6323C23.9938 23.0202 36.0767 19.5 49.5 19.5C62.9233 19.5 75.0062 23.0202 83.6874 28.6323C92.3838 34.2541 97.5 41.8428 97.5 50C97.5 58.1572 92.3838 65.7459 83.6874 71.3677C75.0062 76.9798 62.9233 80.5 49.5 80.5C36.0767 80.5 23.9938 76.9798 15.3126 71.3677Z" fill="#FF3A3A" stroke="black" stroke-width="3"/>
<path d="M21.6725 65.1225C14.6032 60.5842 10.5 54.4953 10.5 48C10.5 41.5047 14.6032 35.4158 21.6725 30.8775C28.7256 26.3496 38.56 23.5 49.5 23.5C60.44 23.5 70.2744 26.3496 77.3275 30.8775C84.3968 35.4158 88.5 41.5047 88.5 48C88.5 54.4953 84.3968 60.5842 77.3275 65.1225C70.2744 69.6504 60.44 72.5 49.5 72.5C38.56 72.5 28.7256 69.6504 21.6725 65.1225Z" fill="#FF9A9A" stroke="black" stroke-width="3"/>
<path d="M86.5 42C86.5 48.8333 82.5526 55.1719 75.8624 59.8638C69.1767 64.5524 59.8609 67.5 49.5 67.5C39.1391 67.5 29.8233 64.5524 23.1377 59.8638C16.4474 55.1719 12.5 48.8333 12.5 42C12.5 35.1667 16.4474 28.8281 23.1377 24.1362C29.8233 19.4476 39.1391 16.5 49.5 16.5C59.8609 16.5 69.1767 19.4476 75.8624 24.1362C82.5526 28.8281 86.5 35.1667 86.5 42Z" fill="#CA6C37" stroke="black" stroke-width="3"/>
<path d="M26 49C20.1627 46.5611 16.9565 35.8471 13 37.5V30.5L50.5 45L86.5 28.5V37.5C86.5 42.5 75.7038 41.5229 71.5 49C67.2962 56.4771 60.5 52.5 57.5 54.5C54.5 56.5 49.5768 64.8762 44.5 54.5C38.2996 47.2858 31.8373 51.4389 26 49Z" fill="#67401D" stroke="black" stroke-width="3"/>
<path d="M23.0699 39.6976C16.3548 35.5116 12.5 29.9217 12.5 24C12.5 18.0783 16.3548 12.4884 23.0699 8.30236C29.7634 4.1298 39.104 1.5 49.5 1.5C59.896 1.5 69.2366 4.1298 75.9301 8.30236C82.6452 12.4884 86.5 18.0783 86.5 24C86.5 29.9217 82.6452 35.5116 75.9301 39.6976C69.2366 43.8702 59.896 46.5 49.5 46.5C39.104 46.5 29.7634 43.8702 23.0699 39.6976Z" fill="#A45F1F" stroke="black" stroke-width="3"/>
<path d="M61.5 24C61.5 25.8277 60.3887 27.666 58.2139 29.1159C56.0495 30.5588 52.9731 31.5 49.5 31.5C46.0269 31.5 42.9505 30.5588 40.7861 29.1159C38.6113 27.666 37.5 25.8277 37.5 24C37.5 22.1723 38.6113 20.334 40.7861 18.8841C42.9505 17.4412 46.0269 16.5 49.5 16.5C52.9731 16.5 56.0495 17.4412 58.2139 18.8841C60.3887 20.334 61.5 22.1723 61.5 24Z" fill="#5E3918" stroke="black" stroke-width="3"/>
<path d="M12.5 44V23.5" stroke="black" stroke-width="3"/>
<path d="M86.5 44V23.5" stroke="black" stroke-width="3"/>
</svg>
